<?xml version="1.0" standalone="no"?>
<!DOCTYPE svg PUBLIC "-//W3C//DTD SVG 20010904//EN"
 "http://www.w3.org/TR/2001/REC-SVG-20010904/DTD/svg10.dtd">
<svg version="1.0" xmlns="http://www.w3.org/2000/svg"
 width="128.000000pt" height="128.000000pt" viewBox="0 0 128.000000 128.000000"
 preserveAspectRatio="xMidYMid meet">
<metadata>
Created by potrace 1.14, written by Peter Selinger 2001-2017
</metadata>
<g transform="translate(0.000000,128.000000) scale(0.100000,-0.100000)"
fill="#000000" stroke="none">
<path d="M321 1119 c-47 -10 -84 -40 -98 -80 -13 -37 -9 -151 8 -213 9 -35 7
-46 -20 -105 -40 -87 -49 -134 -46 -228 6 -167 91 -254 281 -287 74 -13 361
-15 414 -2 14 3 39 9 55 12 64 14 136 57 170 101 75 98 78 267 7 409 -26 54
-28 62 -17 99 19 64 19 198 0 235 -38 73 -177 82 -257 18 -9 -8 -32 -40 -51
-72 l-34 -59 -80 -1 -80 -1 -29 54 c-16 30 -45 67 -65 83 -39 31 -107 48 -158
37z"/>
</g>
</svg>
